<svg aria-hidden="true" style="position: absolute; width: 0; height: 0; overflow: hidden;" version="1.1" xmlns="http://www.w3.org/2000/svg" xmlns:xlink="http://www.w3.org/1999/xlink">
<defs>
<symbol id="icon-facebook" viewBox="0 0 32 32">
<path fill="#bdd1df" style="fill: var(--color1, #bdd1df)" d="M32 16c0 8.837-7.163 16-16 16s-16-7.163-16-16c0-8.837 7.163-16 16-16s16 7.163 16 16z"></path>
<path fill="#fff" style="fill: var(--color2, #fff)" d="M18.979 8.94h-1.651c-0.087-0.009-0.188-0.014-0.29-0.014-1.674 0-3.031 1.357-3.031 3.031 0 0.078 0.003 0.156 0.009 0.233l-0.001-0.010v1.81h-2l0.006 2.010h1.993l-0.030 8.010h3.030v-7.98l1.738-0.030 0.624-2.010h-2.394v-2.060c0-0 0-0.001 0-0.001 0-0.512 0.415-0.927 0.927-0.927 0.043 0 0.085 0.003 0.127 0.009l-0.005-0.001h0.938z"></path>
</symbol>
<symbol id="icon-linkedIn" viewBox="0 0 32 32">
<path fill="#bdd1df" style="fill: var(--color1, #bdd1df)" d="M32 16c0 8.837-7.163 16-16 16s-16-7.163-16-16c0-8.837 7.163-16 16-16s16 7.163 16 16z"></path>
<path fill="#fff" style="fill: var(--color2, #fff)" d="M12.464 8.92c0 0.001 0 0.001 0 0.002 0 0.939-0.761 1.7-1.7 1.7-0.070 0-0.14-0.004-0.208-0.013l0.008 0.001c-0.858-0.099-1.518-0.822-1.518-1.698 0-0.944 0.765-1.709 1.709-1.709s1.709 0.765 1.709 1.709c0 0.003 0 0.006-0 0.009v-0zM9 23.010v-11.020h3.011v11.020h-3.011zM14.019 11.99h2.681l0.321 1.12c0.652-0.92 1.712-1.514 2.912-1.514 0.111 0 0.221 0.005 0.329 0.015l-0.014-0.001c2.221 0 3.756 1.29 3.756 4.49v6.88h-3v-6.4c0.003-0.045 0.005-0.097 0.005-0.15 0-1.213-0.981-2.196-2.193-2.2h-0c-0.798 0.010-1.471 0.529-1.712 1.247l-0.004 0.013c-0.072 0.218-0.114 0.469-0.114 0.729 0 0.039 0.001 0.078 0.003 0.116l-0-0.005v6.65h-2.977v-10.99z"></path>
</symbol>
<symbol id="icon-mail" viewBox="0 0 32 32">
<path fill="#bdd1df" style="fill: var(--color1, #bdd1df)" d="M32 16c0 8.837-7.163 16-16 16s-16-7.163-16-16c0-8.837 7.163-16 16-16s16 7.163 16 16z"></path>
<path fill="#fff" style="fill: var(--color2, #fff)" d="M8.609 12.18c0.487 0.27 6.238 4.010 6.489 4.15 0.265 0.126 0.577 0.2 0.905 0.2s0.64-0.074 0.918-0.206l-0.013 0.006c0.251-0.14 6-3.88 6.489-4.15s0.95-1.12 0.054-1.12h-14.9c-0.891 0-0.43 0.85 0.058 1.12zM23.609 14.24c-0.554 0.3-6.357 3.97-6.7 4.15-0.265 0.126-0.577 0.2-0.905 0.2s-0.64-0.074-0.918-0.206l0.013 0.006c-0.339-0.18-6.142-3.85-6.7-4.15-0.39-0.21-0.386 0.030-0.386 0.22v7.56c0.081 0.511 0.479 0.909 0.983 0.989l0.007 0.001h13.997c0.511-0.081 0.909-0.479 0.99-0.983l0.001-0.007v-7.56c0-0.19 0.003-0.43-0.391-0.22z"></path>
</symbol>
<symbol id="icon-twitter" viewBox="0 0 32 32">
<path fill="#bdd1df" style="fill: var(--color1, #bdd1df)" d="M32 16c0 8.837-7.163 16-16 16s-16-7.163-16-16c0-8.837 7.163-16 16-16s16 7.163 16 16z"></path>
<path fill="#fff" style="fill: var(--color2, #fff)" d="M24.984 11.66c-0.583 0.269-1.259 0.463-1.968 0.547l-0.032 0.003c0.72-0.445 1.261-1.122 1.524-1.925l0.007-0.025c-0.636 0.389-1.377 0.684-2.167 0.843l-0.044 0.007c-0.637-0.683-1.542-1.109-2.546-1.109-1.92 0-3.477 1.557-3.477 3.477 0 0.018 0 0.037 0 0.055l-0-0.003c0 0.001 0 0.003 0 0.005 0 0.286 0.033 0.563 0.095 0.83l-0.005-0.025c-2.91-0.161-5.464-1.563-7.16-3.681l-0.015-0.019c-0.297 0.511-0.472 1.124-0.472 1.778 0 0.001 0 0.002 0 0.002v-0c-0 0.005-0 0.010-0 0.016 0 1.211 0.609 2.279 1.537 2.916l0.012 0.008c-0.582-0.011-1.125-0.173-1.592-0.448l0.015 0.008v0.050c-0 0.006-0 0.013-0 0.019 0 1.685 1.186 3.094 2.769 3.436l0.023 0.004c-0.274 0.080-0.59 0.128-0.916 0.13h-0.001c-0.008 0-0.017 0-0.026 0-0.223 0-0.44-0.026-0.648-0.074l0.019 0.004c0.446 1.411 1.726 2.422 3.249 2.46l0.004 0c-1.17 0.941-2.674 1.51-4.31 1.51-0.005 0-0.010 0-0.014 0h0.001c-0.022 0-0.047 0-0.073 0-0.267 0-0.53-0.018-0.787-0.054l0.030 0.003c1.498 0.996 3.338 1.59 5.317 1.59 0.007 0 0.013 0 0.020-0h-0.001c5.473-0.009 9.906-4.448 9.906-9.922 0-0.049-0-0.097-0.001-0.145l0 0.007c0-0.15 0-0.3-0.010-0.45 0.683-0.509 1.259-1.115 1.721-1.804l0.017-0.026z"></path>
</symbol>
</defs>
</svg>
